<svg width="430" height="173" viewBox="0 0 430 173" fill="none" xmlns="http://www.w3.org/2000/svg">
<path d="M280.94 154.76H45.86L1.53002 18.34C-1.75998 8.22003 3.78002 0.0200195 13.89 0.0200195H212.34C222.46 0.0200195 233.34 8.22003 236.61 18.34L280.94 154.76Z" fill="#FFB7D5"/>
<path d="M429 154.76H197.85C198.515 156.81 198.685 158.988 198.346 161.115C198.007 163.243 197.17 165.261 195.902 167.003C194.634 168.745 192.971 170.162 191.05 171.138C189.129 172.115 187.005 172.622 184.85 172.62H416C418.156 172.625 420.281 172.118 422.203 171.143C424.125 170.167 425.789 168.75 427.057 167.007C428.326 165.264 429.163 163.246 429.501 161.117C429.839 158.988 429.667 156.81 429 154.76Z" fill="#FFB7D5"/>
<path d="M197.85 154.76H46.0901L47.8601 160.22C49.0301 163.823 51.3108 166.964 54.3755 169.192C57.4402 171.419 61.1314 172.619 64.9201 172.62H184.92C187.069 172.611 189.185 172.096 191.097 171.115C193.009 170.134 194.662 168.715 195.922 166.975C197.182 165.234 198.014 163.221 198.349 161.098C198.684 158.976 198.513 156.804 197.85 154.76Z" fill="#CA7358"/>
<path d="M264.92 154.76H63.91L21.96 25.81H222.97L264.92 154.76Z" fill="#F5EBDD"/>
<path d="M189.72 129.16H127.8C120.92 129.16 113.54 123.58 111.3 116.71L96.3701 70.71C94.1401 63.84 97.9001 58.26 104.78 58.26H166.7C173.57 58.26 180.95 63.84 183.19 70.71L198.12 116.71C200.35 123.58 196.59 129.16 189.72 129.16Z" fill="#3EC1F3"/>
<path d="M47 152.78H279" stroke="#CA7358" stroke-width="4" stroke-miterlimit="10" stroke-linecap="round"/>
<path d="M182.82 68.51L158.4 94.59C153.67 99.59 144.66 99.59 136.65 94.59L96.3301 69.17" stroke="#F5EBDD" stroke-width="4" stroke-miterlimit="10" stroke-linecap="round"/>
<path d="M159.36 93.83L197.86 118.1" stroke="#F5EBDD" stroke-width="4" stroke-miterlimit="10" stroke-linecap="round"/>
<path d="M111.92 118.69L134.94 94.1" stroke="#F5EBDD" stroke-width="4" stroke-miterlimit="10" stroke-linecap="round"/>
<path d="M185.19 76.16C177.49 76.16 169.19 69.86 166.65 62.16C165.47 58.52 165.78 55.16 167.53 52.77C169.14 50.57 171.85 49.35 175.17 49.35C182.87 49.35 191.17 55.65 193.7 63.4C194.89 67.04 194.58 70.4 192.82 72.78C191.22 74.94 188.51 76.16 185.19 76.16Z" fill="#4756DF"/>
<path d="M175.17 51.3C181.95 51.3 189.57 57.1 191.8 63.96C192.8 66.96 192.57 69.68 191.21 71.56C190.488 72.4381 189.567 73.1317 188.524 73.5838C187.48 74.0359 186.345 74.2334 185.21 74.16C178.42 74.16 170.81 68.36 168.58 61.49C167.58 58.49 167.81 55.78 169.17 53.9C170.39 52.22 172.52 51.3 175.17 51.3ZM175.17 47.3C166.65 47.3 161.98 54.21 164.75 62.73C167.52 71.25 176.67 78.16 185.19 78.16C193.71 78.16 198.38 71.25 195.61 62.73C192.84 54.21 183.69 47.3 175.17 47.3Z" fill="#F5EBDD"/>
</svg>
