<svg width="1136" height="1018" viewBox="0 0 1136 1018" fill="none" xmlns="http://www.w3.org/2000/svg">
<path d="M734.15 639.7C734.15 639.7 665.49 474.9 662.49 431.94C652.41 287.35 809.27 369.72 833.8 383.94C851.66 394.3 921.7 433.49 935.68 447.46C944.68 456.46 938.42 463.13 938.42 463.13C938.42 463.13 948.93 476.93 934.15 478.57C944.66 492.37 927.9 494.24 927.9 494.24C927.9 494.24 932.39 507.71 914.98 503.66C896.22 499.29 753.98 437.72 753.98 437.72C753.98 437.72 785.76 538.05 795.68 569.79L734.15 639.7Z" fill="#A15842"/>
<path d="M942.45 1011.67L951 1016.62" stroke="#30242A" stroke-width="4" stroke-linecap="round" stroke-linejoin="round"/>
<path d="M847.23 934.05L861.11 939.26" stroke="#30242A" stroke-width="4" stroke-linecap="round" stroke-linejoin="round"/>
<path d="M867.56 445.28C887.553 445.28 903.76 429.073 903.76 409.08C903.76 389.087 887.553 372.88 867.56 372.88C847.567 372.88 831.36 389.087 831.36 409.08C831.36 429.073 847.567 445.28 867.56 445.28Z" fill="#30242A"/>
<path d="M839.45 431.46C842.34 432.77 817.83 375.46 805.55 384.54C794 393.05 824.83 424.81 839.45 431.46Z" fill="#FFBE21"/>
<path d="M836.34 431.35C838.74 434.35 896.59 415.35 888.86 403.57C881.44 392.27 833.94 428.37 836.34 431.35Z" fill="#FFBE21"/>
<path d="M907.24 389.74C920.114 389.74 930.55 379.304 930.55 366.43C930.55 353.556 920.114 343.12 907.24 343.12C894.366 343.12 883.93 353.556 883.93 366.43C883.93 379.304 894.366 389.74 907.24 389.74Z" fill="#30242A"/>
<path d="M748.04 779.56H867.07L873.35 749.8H729.93L748.04 779.56Z" fill="#CA7358"/>
<path d="M747 681.36C747 681.36 771.31 649.62 816.93 646.64L847.22 581.57C839.13 580.28 833.3 579.46 833.3 579.46C834.5 576.56 838.58 566.96 843.51 555.12C834.59 549.19 820.02 537.53 816.65 522.82C827.35 521.21 848.65 511.11 840.24 493.44C829.94 471.77 802.68 488.44 802.68 488.44C794.405 479.052 789.119 467.409 787.5 455C784.19 455.34 774.71 454.33 767.98 450.69L767.53 450.43C763.929 457.501 760.698 464.754 757.85 472.16C757.1 474.06 756.38 475.9 755.62 477.65C755.62 477.65 746.21 476.05 744.28 479.94C741.89 484.74 749.05 490.94 749.05 490.94C743.33 501.7 738.26 510.51 740.1 521.67C741.72 531.52 751.01 543.49 772.9 545.49L761.9 580.2L720.9 651.39C728.94 656.1 739.74 665.07 747 681.36Z" fill="#CA7358"/>
<path d="M1036.68 542C1023.77 525.89 977.68 460.11 962.29 447.77C952.37 439.83 946.42 446.77 946.42 446.77C946.42 446.77 931.54 437.84 931.54 452.72C916.66 443.79 916.66 460.65 916.66 460.65C916.66 460.65 902.77 457.65 908.73 474.54C915.14 492.7 987.09 623.78 987.09 623.78C987.09 623.78 912.69 596.01 883.93 588.61C878.65 587.25 872.18 585.91 865.65 584.69C861.44 594.55 854.86 610.69 844.25 637.69C829.85 674.24 836.85 710.78 878.52 725.28L885.91 690.28C885.91 690.28 962.91 719.22 1005.91 718.05C1151.74 714.09 1054.54 564.31 1036.68 542Z" fill="#CA7358"/>
<path d="M787.5 455C789.113 467.445 794.414 479.123 802.72 488.53C802.72 488.53 829.98 471.81 840.28 493.53C848.69 511.2 827.39 521.3 816.69 522.91C820.06 537.62 834.63 549.28 843.55 555.21C850.87 537.62 860.05 515.07 864.37 502.21C870.76 483.15 874.06 453.61 845.37 432.27C818.52 412.34 787.75 425.56 780.81 432.5C776.69 436.62 772.81 440.5 767.57 450.5L768.02 450.76C774.71 454.29 784.19 455.3 787.5 455Z" fill="#30242A"/>
<path d="M844.25 637.72C854.86 610.78 861.44 594.6 865.65 584.72C859.21 583.51 852.72 582.42 847.26 581.55L817 646.64C771.38 649.64 747.07 681.36 747.07 681.36C739.77 665.07 728.97 656.1 720.98 651.36L711.84 667.23C707.173 675.588 704.806 685.034 704.982 694.605C705.157 704.176 707.869 713.529 712.84 721.71L729.92 749.78H873.35L878.52 725.29C836.85 710.81 829.85 674.27 844.25 637.72Z" fill="#FFBE21"/>
<path d="M773.52 547.54C779.744 547.506 785.933 546.591 791.9 544.82" stroke="#30242A" stroke-width="4" stroke-miterlimit="10" stroke-linecap="round"/>
<path d="M919.53 494.85C920.26 492.31 922.06 490.66 925.59 490.91C939.48 491.91 954.35 513.73 954.35 513.73C954.35 513.73 975.7 502.73 994.29 519.28" stroke="#30242A" stroke-width="4" stroke-miterlimit="10" stroke-linecap="round"/>
<path d="M918.68 460.11C926.44 472.34 940.86 495.11 944.43 500.83" stroke="#30242A" stroke-width="4" stroke-miterlimit="10" stroke-linecap="round"/>
<path d="M933 451.62C941 463.4 955 483.5 960.31 491.91" stroke="#30242A" stroke-width="4" stroke-miterlimit="10" stroke-linecap="round"/>
<path d="M948.66 447C958.66 459.76 973.98 479.56 979.15 488" stroke="#30242A" stroke-width="4" stroke-miterlimit="10" stroke-linecap="round"/>
<path d="M946.42 500.83C952.42 496.83 964.27 489.92 984.11 487.94" stroke="#30242A" stroke-width="4" stroke-miterlimit="10" stroke-linecap="round"/>
<path d="M833.07 577.34L815.49 575.23" stroke="#30242A" stroke-width="4" stroke-miterlimit="10" stroke-linecap="round"/>
<path d="M770.85 769.64L769.86 767.66" stroke="#30242A" stroke-width="4" stroke-miterlimit="10" stroke-linecap="round"/>
<path d="M884.93 692.2L875 688.3" stroke="#30242A" stroke-width="4" stroke-miterlimit="10" stroke-linecap="round"/>
<path d="M1009.9 630.77L987.35 621.91" stroke="#30242A" stroke-width="4" stroke-miterlimit="10" stroke-linecap="round"/>
<path d="M873.35 749.8H729.93" stroke="#30242A" stroke-width="4" stroke-linecap="round" stroke-linejoin="round"/>
<path d="M815.49 646.64L801 679C798.825 683.846 795.296 687.96 790.838 690.846C786.379 693.733 781.181 695.269 775.87 695.27H704.87" stroke="#30242A" stroke-width="4" stroke-linecap="round" stroke-linejoin="round"/>
<path d="M754.47 503C756.18 504.47 763.12 506.47 766.83 501.46" stroke="#30242A" stroke-width="4" stroke-miterlimit="10" stroke-linecap="round"/>
<path d="M824.93 499.89L812.37 504.76" stroke="#A15842" stroke-width="4" stroke-miterlimit="10" stroke-linecap="round"/>
<path d="M778.08 480.24C777.124 480.479 776.128 480.519 775.156 480.358C774.183 480.197 773.254 479.839 772.426 479.305C771.597 478.77 770.887 478.072 770.339 477.252C769.791 476.433 769.417 475.51 769.24 474.54" stroke="#30242A" stroke-width="4" stroke-linecap="round" stroke-linejoin="round"/>
<path d="M811.82 517.6L807.28 536.15C807.037 537.11 807.046 538.116 807.307 539.071C807.567 540.026 808.069 540.898 808.765 541.602C809.461 542.306 810.327 542.818 811.279 543.09C812.231 543.361 813.237 543.382 814.2 543.15L831.15 539.15C832.107 538.918 832.988 538.444 833.709 537.773C834.43 537.103 834.967 536.258 835.268 535.321C835.569 534.383 835.624 533.384 835.428 532.419C835.233 531.455 834.792 530.556 834.15 529.81L821.74 515.3C821.055 514.505 820.167 513.913 819.17 513.587C818.173 513.262 817.106 513.214 816.085 513.451C815.063 513.688 814.126 514.2 813.374 514.931C812.622 515.662 812.085 516.585 811.82 517.6Z" fill="#F4E6D8"/>
<path d="M850 948.62C840.08 936.71 805.57 893.62 805.57 893.62" stroke="#30242A" stroke-width="4" stroke-linecap="round" stroke-linejoin="round"/>
<path d="M1118 852C1114.36 842.16 1107.68 825.67 1099.44 805.87L1011 831.68L1000.86 834.88C1005.42 864.37 1008.92 878.75 1008.92 878.75C1008.92 878.75 913.7 791.46 867.08 779.56H748L707.33 1017.62H1062.43C1163.65 1017.62 1134.88 897.6 1118 852Z" fill="#4856DF"/>
<path d="M1021.71 624.49C1020.56 621.748 1018.49 619.489 1015.86 618.098C1013.23 616.707 1010.21 616.27 1007.29 616.86C989.66 620.8 988.29 654.18 984.11 673.42C977.17 705.17 962.29 717.07 961.3 737.9C960.3 757.9 992.05 765.67 992.05 765.67C993.13 776.143 994.227 785.867 995.34 794.84L1083.72 768.42C1059.48 711.28 1030.77 645.27 1021.71 624.49Z" fill="#A15842"/>
<path d="M1000.81 834.65V834.88L1010.95 831.68L1000.81 834.65Z" fill="#A15842"/>
<path d="M1099.46 805.84C1099.2 805.23 1098.95 804.61 1098.69 803.99L1011 831.68L1099.46 805.84Z" fill="#3EC1F3"/>
<path d="M1098.69 804C1094.08 792.94 1089 780.89 1083.69 768.43L995.31 794.85C997.2 810.29 999.07 823.54 1000.78 834.66L1010.96 831.66L1098.69 804Z" fill="#3EC1F3"/>
<path d="M830.74 779.25C862.44 812.5 1026.36 981.05 1077.35 964.05C1114.58 951.64 1059.76 829.37 1054.54 813.28" stroke="#3EC1F3" stroke-width="4" stroke-linecap="round" stroke-linejoin="round"/>
<path d="M1052 914.6C1040.51 904.3 1020 885.93 1009.1 876.23" stroke="#30242A" stroke-width="4" stroke-linecap="round" stroke-linejoin="round"/>
<path d="M988.08 742.86L990.02 763.59" stroke="#30242A" stroke-width="4" stroke-linecap="round" stroke-linejoin="round"/>
<path d="M1013 618.62L1016.76 629.16" stroke="#30242A" stroke-width="4" stroke-linecap="round" stroke-linejoin="round"/>
<path d="M1004 619.62L1010.08 634.57" stroke="#30242A" stroke-width="4" stroke-linecap="round" stroke-linejoin="round"/>
<path d="M773.53 911.84L772.97 911.67L793.66 779.36H748C748 779.36 565.53 849 523.87 915.45C484.49 978.26 556.6 1017.62 577.43 1017.62H759.1L773.53 911.84Z" fill="#4856DF"/>
<path d="M965.26 1017.62C989.07 1017.62 981.14 990.83 964.26 981.91C947.38 972.99 927.56 964.05 906.73 936.28C885.9 908.51 861.1 915.45 845.23 935.28C845.23 935.28 833.13 930.93 815.35 925.03L801.43 1017.61L965.26 1017.62Z" fill="#CA7358"/>
<path d="M775.27 912.36L773.53 911.84L759.1 1017.62H801.44L815.36 925C803.8 921.21 789.85 916.72 775.27 912.36Z" fill="#3EC1F3"/>
<path d="M954.35 1006.71L969 1015.62" stroke="#30242A" stroke-width="4" stroke-linecap="round" stroke-linejoin="round"/>
<path d="M675.63 888.67C717.29 896.6 735.31 901.67 773 913.67" stroke="#30242A" stroke-width="4" stroke-linecap="round" stroke-linejoin="round"/>
</svg>
