<svg width="222" height="418" viewBox="0 0 222 418" fill="none" xmlns="http://www.w3.org/2000/svg">
<path d="M27.77 307.68V326.95H194.38V307.68H27.77Z" fill="#A15842"/>
<path d="M221.82 407.65L180.55 160H205.83C208.535 160 211.13 158.925 213.042 157.013C214.955 155.1 216.03 152.505 216.03 149.8C216.03 147.095 214.955 144.5 213.042 142.588C211.13 140.675 208.535 139.6 205.83 139.6H16.56C13.8547 139.6 11.2603 140.675 9.34746 142.588C7.43459 144.5 6.35994 147.095 6.35994 149.8C6.35994 152.505 7.43459 155.1 9.34746 157.013C11.2603 158.925 13.8547 160 16.56 160H41.56L0.289965 407.63C0.0803313 408.858 0.141415 410.118 0.468981 411.32C0.796548 412.522 1.3827 413.639 2.18645 414.591C2.9902 415.543 3.99218 416.309 5.12239 416.834C6.25261 417.359 7.48381 417.63 8.72997 417.63C10.6846 417.629 12.5802 416.961 14.1026 415.735C15.625 414.509 16.6826 412.8 17.1 410.89L71.81 160H150.34L205 410.88C205.414 412.79 206.469 414.5 207.99 415.726C209.511 416.953 211.406 417.621 213.36 417.62C214.605 417.622 215.835 417.353 216.965 416.832C218.096 416.31 219.098 415.548 219.904 414.598C220.709 413.649 221.298 412.536 221.629 411.336C221.96 410.136 222.025 408.878 221.82 407.65Z" fill="#FFBE21"/>
<path d="M205.83 160C208.535 160 211.129 158.925 213.042 157.013C214.955 155.1 216.03 152.505 216.03 149.8C216.03 147.095 214.955 144.5 213.042 142.588C211.129 140.675 208.535 139.6 205.83 139.6H16.5599C13.8547 139.6 11.2603 140.675 9.34738 142.588C7.43451 144.5 6.35986 147.095 6.35986 149.8C6.35986 152.505 7.43451 155.1 9.34738 157.013C11.2603 158.925 13.8547 160 16.5599 160H41.5599L41.5099 160.31H71.6999L71.7699 160H150.3L150.37 160.31H180.6L180.55 160H205.83Z" fill="#A15842"/>
<path d="M140.52 15.2C148.283 15.2 155.728 18.2838 161.217 23.7729C166.706 29.2621 169.79 36.707 169.79 44.4699V139.88H111.25V44.4699C111.25 36.707 114.334 29.2621 119.823 23.7729C125.312 18.2838 132.757 15.2 140.52 15.2Z" fill="#4756DF"/>
<path d="M169.8 52.5901H111.25V107.14H169.8V52.5901Z" fill="#3EC1F3"/>
<path d="M153.53 0.0200195H127.51V18.45H153.53V0.0200195Z" fill="#30242A"/>
</svg>
