<svg width="453" height="661" viewBox="0 0 453 661" fill="none" xmlns="http://www.w3.org/2000/svg">
<path d="M262.65 191.923H262.4C260.62 195.143 248.89 214.833 228.28 214.833C207.67 214.833 195.94 195.143 194.15 191.923H193.91L161.83 336.733H294.73L262.65 191.923Z" fill="#3EC1F3"/>
<path d="M177.03 268.953C204.25 271.803 246.52 296.113 261.21 336.313" stroke="#F5EBDD" stroke-width="4" stroke-miterlimit="10" stroke-linecap="round"/>
<path d="M194.67 337.483C197.72 304.733 223.67 250.603 270.37 233.673" stroke="#F5EBDD" stroke-width="4" stroke-miterlimit="10" stroke-linecap="round"/>
<path d="M227.79 204.163C216.32 216.253 201.86 227.513 185.5 235.073" stroke="#F5EBDD" stroke-width="4" stroke-miterlimit="10" stroke-linecap="round"/>
<path d="M228.28 214.833C248.89 214.833 260.62 195.143 262.4 191.923H194.15C195.94 195.143 207.66 214.833 228.28 214.833Z" fill="#30242A"/>
<path d="M41.02 660.103C39.6298 660.103 38.2593 659.774 37.0211 659.141C35.783 658.509 34.7125 657.592 33.8975 656.466C33.0825 655.34 32.5463 654.036 32.3329 652.662C32.1195 651.288 32.2351 649.884 32.67 648.563L60.25 564.643C60.8345 562.892 61.9559 561.37 63.4549 560.293C64.9538 559.216 66.7542 558.639 68.6 558.643H87.9C89.4334 558.642 90.9406 559.042 92.2717 559.803C93.6028 560.564 94.7116 561.66 95.488 562.983C96.2644 564.305 96.6813 565.807 96.6975 567.341C96.7136 568.874 96.3284 570.385 95.58 571.723L48.7 655.643C47.9296 657 46.8125 658.128 45.4631 658.912C44.1137 659.695 42.5805 660.106 41.02 660.103V660.103Z" fill="#A15842"/>
<path d="M409.99 660.103C411.38 660.103 412.751 659.774 413.989 659.141C415.227 658.509 416.298 657.592 417.113 656.466C417.928 655.34 418.464 654.036 418.677 652.662C418.89 651.288 418.775 649.884 418.34 648.563L390.76 564.643C390.174 562.893 389.053 561.372 387.554 560.295C386.055 559.218 384.255 558.64 382.41 558.643H363.1C361.568 558.643 360.062 559.045 358.732 559.806C357.402 560.568 356.295 561.665 355.52 562.987C354.744 564.309 354.328 565.811 354.312 567.343C354.297 568.876 354.682 570.385 355.43 571.723L402.31 655.643C403.08 657.001 404.197 658.129 405.546 658.913C406.896 659.697 408.429 660.107 409.99 660.103Z" fill="#A15842"/>
<path d="M452.56 335.093H0V594.173H452.56V335.093Z" fill="#FFB7D5"/>
<path d="M418.5 368.483V560.763H34.0601V368.483H418.5ZM422.5 364.483H30.0601V564.763H422.5V364.483Z" fill="#CA7358"/>
<path d="M225.86 364.123V565.143" stroke="#CA7358" stroke-width="4" stroke-miterlimit="10"/>
<path d="M231.43 202.743C233.55 190.223 243.19 140.563 266.78 113.693" stroke="#30242A" stroke-width="4" stroke-miterlimit="10" stroke-linecap="round"/>
<path d="M281.294 157.008C301.891 148.104 316.964 137.129 314.961 132.496C312.957 127.862 294.637 131.325 274.04 140.229C253.443 149.134 238.369 160.109 240.373 164.742C242.376 169.375 260.697 165.913 281.294 157.008Z" fill="#30242A"/>
<path d="M283.346 27.3922C290.793 17.4586 294.022 7.30029 290.558 4.70294C287.093 2.10559 278.248 8.05277 270.8 17.9863C263.353 27.9199 260.124 38.0782 263.588 40.6756C267.052 43.2729 275.898 37.3257 283.346 27.3922Z" fill="#30242A"/>
<path d="M323.56 94.3632C322.11 89.6432 312.71 88.1232 300.81 90.1132C309.52 78.3432 313.12 66.8532 308.81 63.2232C304.5 59.5932 293.81 65.0732 283.65 75.6232C283.65 63.5632 280.54 54.5432 275.65 53.9132C269.41 53.1032 262.57 66.2532 260.37 83.2732C259.72 88.1346 259.54 93.0472 259.83 97.9432C262.709 97.0414 265.768 96.8728 268.728 97.4525C271.689 98.0322 274.458 99.342 276.784 101.263C279.11 103.184 280.92 105.655 282.049 108.453C283.178 111.25 283.591 114.286 283.25 117.283C287.971 116.738 292.631 115.757 297.17 114.353C313.56 109.333 325.38 100.383 323.56 94.3632Z" fill="#FFBE21"/>
<path d="M276.91 101.383C274.581 99.4149 271.792 98.0674 268.802 97.466C265.812 96.8646 262.719 97.0287 259.81 97.9431C260.34 106.053 262.35 112.273 265.42 114.593C268.27 117.283 274.93 118.213 283.23 117.283C283.567 114.317 283.166 111.314 282.064 108.541C280.961 105.767 279.191 103.308 276.91 101.383V101.383Z" fill="#30242A"/>
<path d="M224.89 201.153C224.2 186.933 220.07 117.153 204.59 75.9431" stroke="#30242A" stroke-width="4" stroke-miterlimit="10" stroke-linecap="round"/>
<path d="M173.839 161.131C200.439 156.062 221.277 148.144 220.381 143.445C219.486 138.747 197.197 139.048 170.597 144.117C143.997 149.187 123.16 157.105 124.055 161.803C124.95 166.501 147.24 166.201 173.839 161.131Z" fill="#30242A"/>
<path d="M215.94 16.6032C211.12 15.5432 205.19 23.0032 201.08 34.3432C195.08 20.9832 186.84 12.2132 181.58 14.1732C176.32 16.1332 175.81 28.1732 180.04 42.1732C169.51 36.2932 160.15 34.5432 157.2 38.5032C153.43 43.5032 161.53 55.9532 175.29 66.2232C179.21 69.1721 183.402 71.7404 187.81 73.8932C188.435 70.9416 189.788 68.193 191.745 65.8966C193.702 63.6002 196.201 61.8288 199.016 60.7432C201.831 59.6575 204.873 59.2919 207.865 59.6796C210.857 60.0673 213.705 61.196 216.15 62.9632C217.984 58.5795 219.413 54.0372 220.42 49.3932C224.09 32.6332 222.09 17.9532 215.94 16.6032Z" fill="#FFBE21"/>
<path d="M199.2 60.6831C196.34 61.7466 193.796 63.5165 191.805 65.828C189.813 68.1396 188.439 70.9175 187.81 73.9031C195.14 77.4131 201.54 78.7131 205.07 77.1831C208.81 76.0031 212.89 70.6531 216.15 62.9731C213.732 61.2245 210.92 60.1005 207.962 59.701C205.005 59.3015 201.995 59.6389 199.2 60.6831Z" fill="#30242A"/>
<path d="M153.05 90.9231V90.9831C157.002 93.2166 159.973 96.8515 161.375 101.169C162.776 105.487 162.507 110.174 160.62 114.303C158.728 118.426 155.361 121.691 151.182 123.455C147.002 125.219 142.314 125.354 138.04 123.833V123.903C160.42 134.133 181.93 135.033 186.04 125.903C190.15 116.773 175.43 101.143 153.05 90.9231Z" fill="#FFBE21"/>
<path d="M154.85 121.353C152.919 120.272 151.466 118.503 150.781 116.399C150.096 114.294 150.229 112.009 151.154 109.998C152.078 107.987 153.727 106.399 155.77 105.549C157.814 104.699 160.102 104.651 162.18 105.413C161.955 102.441 161.001 99.5697 159.404 97.0532C157.806 94.5366 155.614 92.4519 153.02 90.9832L138.02 123.833C140.814 124.831 143.81 125.126 146.745 124.694C149.679 124.261 152.463 123.114 154.85 121.353Z" fill="#F5EBDD"/>
<path d="M151.15 110.023C150.233 112.032 150.104 114.311 150.79 116.41C151.475 118.509 152.924 120.273 154.85 121.353C157.324 119.536 159.294 117.12 160.577 114.331C161.859 111.543 162.411 108.474 162.18 105.413C160.099 104.654 157.808 104.707 155.763 105.561C153.719 106.415 152.072 108.009 151.15 110.023Z" fill="#30242A"/>
</svg>
