<svg width="437" height="549" viewBox="0 0 437 549" fill="none" xmlns="http://www.w3.org/2000/svg">
<path d="M208.93 30.1599H228.1C271.678 30.1599 313.471 47.4711 344.285 78.2852C375.099 109.099 392.41 150.892 392.41 194.47V518.65H44.6201V194.47C44.6201 150.892 61.9313 109.099 92.7454 78.2852C123.559 47.4711 165.352 30.1599 208.93 30.1599Z" fill="#FFB7D5"/>
<path d="M281.75 325.63V523.73H127.25V325.63H281.75ZM285.75 321.63H123.25V527.73H285.75V321.63Z" fill="#CA7358"/>
<path d="M285.75 321.63H123.25V364.24H285.75V321.63Z" fill="#CA7358"/>
<path d="M122.47 218.62V524.72H29.3999V218.62H122.47ZM126.47 214.62H25.3999V528.72H126.47V214.62Z" fill="#CA7358"/>
<path d="M409.32 156.69V523.69H286.53V156.69H409.32ZM413.32 152.69H282.53V527.69H413.32V152.69Z" fill="#CA7358"/>
<path d="M335.32 202.73H337.23C341.574 202.73 345.741 204.456 348.812 207.528C351.884 210.599 353.61 214.766 353.61 219.11V257.22H318.94V219.11C318.94 214.766 320.666 210.599 323.738 207.528C326.809 204.456 330.976 202.73 335.32 202.73Z" fill="#CA7358"/>
<path d="M314.98 232.45H357.58" stroke="#FFB7D5" stroke-width="4" stroke-linecap="round" stroke-linejoin="round"/>
<path d="M335.32 300.49H337.23C341.574 300.49 345.741 302.216 348.812 305.288C351.884 308.359 353.61 312.526 353.61 316.87V355H318.94V316.88C318.94 312.536 320.666 308.369 323.738 305.298C326.809 302.226 330.976 300.5 335.32 300.5V300.49Z" fill="#F5EBDD"/>
<path d="M314.98 330.22H357.58" stroke="#FFB7D5" stroke-width="4" stroke-linecap="round" stroke-linejoin="round"/>
<path d="M335.32 398.26H337.23C341.574 398.26 345.741 399.986 348.812 403.058C351.884 406.129 353.61 410.296 353.61 414.64V452.75H318.94V414.64C318.94 410.296 320.666 406.129 323.738 403.058C326.809 399.986 330.976 398.26 335.32 398.26Z" fill="#F5EBDD"/>
<path d="M314.98 427.98H357.58" stroke="#FFB7D5" stroke-width="4" stroke-linecap="round" stroke-linejoin="round"/>
<path d="M335.32 496H337.23C341.574 496 345.741 497.726 348.812 500.798C351.884 503.869 353.61 508.036 353.61 512.38V547.38H318.94V512.38C318.94 508.036 320.666 503.869 323.738 500.798C326.809 497.726 330.976 496 335.32 496Z" fill="#30242A"/>
<path d="M55.3199 283.73H57.2299C61.5742 283.73 65.7405 285.456 68.8123 288.528C71.8842 291.599 73.6099 295.766 73.6099 300.11V338.22H38.9399V300.11C38.9399 295.766 40.6657 291.599 43.7375 288.528C46.8094 285.456 50.9757 283.73 55.3199 283.73Z" fill="#F5EBDD"/>
<path d="M34.98 313.45H77.58" stroke="#FFB7D5" stroke-width="4" stroke-linecap="round" stroke-linejoin="round"/>
<path d="M55.32 381.49H57.23C61.5742 381.49 65.7405 383.216 68.8124 386.288C71.8842 389.359 73.6099 393.526 73.6099 397.87V436H38.9399V397.88C38.9386 395.728 39.3613 393.597 40.1839 391.609C41.0065 389.62 42.2128 387.813 43.734 386.291C45.2551 384.769 47.0613 383.562 49.0493 382.738C51.0373 381.914 53.1681 381.49 55.32 381.49Z" fill="#F5EBDD"/>
<path d="M34.98 411.22H77.58" stroke="#FFB7D5" stroke-width="4" stroke-linecap="round" stroke-linejoin="round"/>
<path d="M55.3199 479.26H57.2299C61.5742 479.26 65.7405 480.986 68.8123 484.058C71.8842 487.129 73.6099 491.296 73.6099 495.64V533.75H38.9399V495.64C38.9399 491.296 40.6657 487.129 43.7375 484.058C46.8094 480.986 50.9757 479.26 55.3199 479.26Z" fill="#CA7358"/>
<path d="M34.98 508.98H77.58" stroke="#FFB7D5" stroke-width="4" stroke-linecap="round" stroke-linejoin="round"/>
<path d="M413.32 152.69H282.53V169.04H413.32V152.69Z" fill="#CA7358"/>
<path d="M126.47 206.69H25.3999V223.04H126.47V206.69Z" fill="#CA7358"/>
<path d="M187.16 402.88H152.48V447.47H187.16V402.88Z" fill="#F5EBDD"/>
<path d="M148.51 422.7H191.12" stroke="#FFB7D5" stroke-width="4" stroke-linecap="round" stroke-linejoin="round"/>
<path d="M169.82 449.45V422.7" stroke="#FFB7D5" stroke-width="4" stroke-linecap="round" stroke-linejoin="round"/>
<path d="M187.16 483.41H152.48V528H187.16V483.41Z" fill="#CA7358"/>
<path d="M148.51 503.22H191.12" stroke="#FFB7D5" stroke-width="4" stroke-linecap="round" stroke-linejoin="round"/>
<path d="M169.82 529.98V503.22" stroke="#FFB7D5" stroke-width="4" stroke-linecap="round" stroke-linejoin="round"/>
<path d="M252.55 402.88H217.87V447.47H252.55V402.88Z" fill="#30242A"/>
<path d="M213.91 422.7H256.52" stroke="#FFB7D5" stroke-width="4" stroke-linecap="round" stroke-linejoin="round"/>
<path d="M235.21 449.45V422.7" stroke="#FFB7D5" stroke-width="4" stroke-linecap="round" stroke-linejoin="round"/>
<path d="M252.55 483.41H217.87V528H252.55V483.41Z" fill="#F5EBDD"/>
<path d="M213.91 503.22H256.52" stroke="#FFB7D5" stroke-width="4" stroke-linecap="round" stroke-linejoin="round"/>
<path d="M235.21 529.98V503.22" stroke="#FFB7D5" stroke-width="4" stroke-linecap="round" stroke-linejoin="round"/>
<path d="M146.28 151.2C160.507 151.2 172.04 139.667 172.04 125.44C172.04 111.213 160.507 99.6799 146.28 99.6799C132.053 99.6799 120.52 111.213 120.52 125.44C120.52 139.667 132.053 151.2 146.28 151.2Z" fill="#F5EBDD"/>
<path d="M437 518.81H0.0300293V548.54H437V518.81Z" fill="#F5EBDD"/>
<path d="M225.42 0.589966H211.61C103 0.589966 14.8999 88.67 14.8999 197.31V548.54H422.14V197.31C422.14 88.67 334.06 0.589966 225.42 0.589966ZM203.65 518.81H44.6499V271.1H203.65V518.81ZM203.65 241.37H44.6499V198.32C44.6496 155.321 61.1362 113.959 90.7151 82.751C120.294 51.5426 160.713 32.8635 203.65 30.56V241.37ZM392.41 518.81H233.41V271.1H392.41V518.81ZM392.41 241.37H233.41V30.56C276.347 32.8635 316.766 51.5426 346.345 82.751C375.924 113.959 392.41 155.321 392.41 198.32V241.37Z" fill="#F5EBDD"/>
</svg>
